<svg width="14" height="15" viewBox="0 0 14 15" fill="none" xmlns="http://www.w3.org/2000/svg">
<path d="M2.99029 9.64285H0.543689C0.242961 9.64285 0 9.88225 0 10.1786V14.4643C0 14.7606 0.242961 15 0.543689 15H2.99029C3.29102 15 3.53398 14.7606 3.53398 14.4643V10.1786C3.53398 9.88225 3.29102 9.64285 2.99029 9.64285Z" fill="#FF2727"/>
<path d="M5.77672 4.82143H8.22332C8.52405 4.82143 8.76701 5.06083 8.76701 5.35714V14.4643C8.76701 14.7606 8.52405 15 8.22332 15H5.77672C5.47599 15 5.23303 14.7606 5.23303 14.4643V5.35714C5.23303 5.06083 5.47599 4.82143 5.77672 4.82143Z" fill="#424242"/>
<path d="M11.0097 0H13.4563C13.7571 0 14 0.239397 14 0.535714V7.5V14.4643C14 14.7606 13.7571 15 13.4563 15H11.0097C10.709 15 10.466 14.7606 10.466 14.4643V0.535714C10.466 0.239397 10.709 0 11.0097 0Z" fill="#424242"/>
</svg>
