<svg width="14" height="15" viewBox="0 0 14 15" fill="none" xmlns="http://www.w3.org/2000/svg">
<path d="M11.0098 0H13.4564C13.7571 0 14 0.239397 14 0.535714V14.4643C14 14.7606 13.7571 15 13.4564 15H11.0098C10.709 15 10.4661 14.7606 10.4661 14.4643V0.535714C10.4661 0.239397 10.709 0 11.0098 0Z" fill="#424242"/>
<path d="M8.2233 4.82144H5.7767C5.47597 4.82144 5.23301 5.06084 5.23301 5.35716V14.4643C5.23301 14.7606 5.47597 15 5.7767 15H8.2233C8.52403 15 8.76699 14.7606 8.76699 14.4643V5.35716C8.76699 5.06084 8.52403 4.82144 8.2233 4.82144ZM2.99029 9.64287H0.543689C0.242961 9.64287 0 9.88227 0 10.1786V14.4643C0 14.7606 0.242961 15 0.543689 15H2.99029C3.29102 15 3.53398 14.7606 3.53398 14.4643V10.1786C3.53398 9.88227 3.29102 9.64287 2.99029 9.64287Z" fill="#FFD600"/>
</svg>
