<svg width="22" height="20" viewBox="0 0 22 20" fill="none" xmlns="http://www.w3.org/2000/svg">
<path fill-rule="evenodd" clip-rule="evenodd" d="M14 19.2307V0.767036C13.9996 0.623331 13.9585 0.482619 13.8813 0.360843C13.8042 0.239067 13.6941 0.141097 13.5635 0.0780342C13.433 0.0149712 13.2872 -0.0106634 13.1427 0.00403516C12.9981 0.0187337 12.8607 0.0731777 12.7458 0.161198L5.95 5.38295H1.55556C1.143 5.38295 0.747335 5.54505 0.455612 5.8336C0.163888 6.12215 0 6.51351 0 6.92158V13.0761C0 13.4842 0.163888 13.8756 0.455612 14.1641C0.747335 14.4527 1.143 14.6148 1.55556 14.6148H5.95L12.7458 19.8365C12.8815 19.9425 13.0494 20.0001 13.2222 20C13.3399 19.9986 13.4559 19.9724 13.5625 19.9231C13.6938 19.8599 13.8044 19.7615 13.8818 19.639C13.9591 19.5166 14.0001 19.3751 14 19.2307ZM20.0333 9.99886L21.7778 8.23905C21.8988 8.08957 21.9606 7.89981 21.9512 7.70667C21.9419 7.51353 21.862 7.33082 21.7272 7.19409C21.5924 7.05735 21.4123 6.97637 21.2219 6.96688C21.0315 6.9574 20.8444 7.02009 20.697 7.14277L18.962 8.9122L17.227 7.14277C17.0796 7.02009 16.8925 6.9574 16.7021 6.96688C16.5117 6.97637 16.3316 7.05735 16.1968 7.19409C16.0619 7.33082 15.9821 7.51353 15.9727 7.70667C15.9634 7.89981 16.0252 8.08957 16.1462 8.23905L17.8906 9.99886L16.1462 11.7587C16.0037 11.9045 15.9238 12.1015 15.9238 12.3068C15.9238 12.5121 16.0037 12.7091 16.1462 12.855C16.2917 12.9961 16.4852 13.0753 16.6866 13.0761C16.8876 13.0734 17.0804 12.9945 17.227 12.855L18.962 11.0855L20.697 12.855C20.8426 12.9961 21.036 13.0753 21.2374 13.0761C21.4384 13.0734 21.6312 12.9945 21.7778 12.855C21.9202 12.7091 22.0001 12.5121 22.0001 12.3068C22.0001 12.1015 21.9202 11.9045 21.7778 11.7587L20.0333 9.99886Z" fill="#FF2727"/>
</svg>
