<svg width="21" height="20" viewBox="0 0 21 20" fill="none" xmlns="http://www.w3.org/2000/svg">
<path d="M14 0.767036V19.2307C14.0001 19.3751 13.9591 19.5166 13.8818 19.639C13.8044 19.7615 13.6938 19.8599 13.5625 19.9231C13.4559 19.9724 13.3399 19.9986 13.2222 20C13.0494 20.0001 12.8815 19.9425 12.7458 19.8365L5.95 14.6148H1.55556C1.143 14.6148 0.747335 14.4527 0.455612 14.1641C0.163888 13.8756 0 13.4842 0 13.0761V6.92158C0 6.51351 0.163888 6.12215 0.455612 5.8336C0.747335 5.54505 1.143 5.38295 1.55556 5.38295H5.95L12.7458 0.161198C12.8607 0.0731777 12.9981 0.0187337 13.1427 0.00403516C13.2872 -0.0106634 13.433 0.0149712 13.5635 0.0780342C13.6941 0.141097 13.8042 0.239067 13.8813 0.360843C13.9585 0.482619 13.9996 0.623331 14 0.767036ZM17.1111 6.92158C16.9048 6.92158 16.707 7.00264 16.5611 7.14691C16.4153 7.29119 16.3333 7.48687 16.3333 7.6909V12.3068C16.3333 12.5108 16.4153 12.7065 16.5611 12.8508C16.707 12.9951 16.9048 13.0761 17.1111 13.0761C17.3174 13.0761 17.5152 12.9951 17.6611 12.8508C17.8069 12.7065 17.8889 12.5108 17.8889 12.3068V7.6909C17.8889 7.48687 17.8069 7.29119 17.6611 7.14691C17.5152 7.00264 17.3174 6.92158 17.1111 6.92158ZM20.2222 5.38295C20.0159 5.38295 19.8181 5.464 19.6723 5.60828C19.5264 5.75255 19.4444 5.94823 19.4444 6.15227V13.8455C19.4444 14.0495 19.5264 14.2452 19.6723 14.3894C19.8181 14.5337 20.0159 14.6148 20.2222 14.6148C20.4285 14.6148 20.6263 14.5337 20.7722 14.3894C20.9181 14.2452 21 14.0495 21 13.8455V6.15227C21 5.94823 20.9181 5.75255 20.7722 5.60828C20.6263 5.464 20.4285 5.38295 20.2222 5.38295Z" fill="white"/>
</svg>
