<svg width="13" height="15" viewBox="0 0 13 15" fill="none" xmlns="http://www.w3.org/2000/svg">
<path d="M12.5663 8.97256C12.001 8.75223 11.2454 8.67601 10.8437 9.02615C10.4185 9.39534 10.2387 9.55731 9.46789 10.2421C8.44832 10.5553 8.78 8.06744 8.84073 7.38622C8.84424 7.34692 9.33008 3.35369 9.43869 2.68081C9.56599 1.88884 9.30322 1.36363 8.76832 1.27431C8.19373 1.17903 7.82467 1.96267 7.76044 2.36878C7.66117 2.99522 7.31431 5.00315 7.1438 6.45848C7.1438 6.45848 7.11694 6.59782 7.0819 6.62402C6.83197 6.811 6.67197 6.48349 6.67197 6.48349C6.60073 5.38187 6.6054 2.16632 6.60073 1.55537C6.58905 0.500197 6.27372 0.00119264 5.73299 1.70153e-06C5.02058 -0.00118924 4.80686 0.622864 4.81737 1.65303C4.82438 2.26875 4.91898 4.57679 4.90379 6.33343C4.64336 6.80981 4.32803 6.39893 4.32803 6.39893C4.12131 4.73161 3.93679 2.54504 3.8527 2.03175C3.71606 1.19809 3.43927 0.815797 2.89854 0.861053C2.33679 0.907499 2.13941 1.37673 2.23635 2.34973C2.30525 3.03928 2.5727 5.72962 2.70233 6.83958C2.56219 7.50055 2.11372 7.12898 2.11372 7.12898C1.81241 5.5224 1.63722 4.65897 1.53562 4.25524C1.32189 3.40133 1.06146 3.13694 0.538244 3.28224C-0.041027 3.44421 -0.0597132 3.97656 0.0570752 4.75067C0.135323 5.27111 0.725105 8.76414 0.781164 10.1575C0.869923 12.2965 1.80773 14.1019 2.86701 14.5557C4.35606 15.194 6.39285 15.1917 8.08628 14.2389C8.49621 14.0079 9.07781 13.2016 9.42 12.8741C9.47256 12.8217 10.5108 11.5581 10.6615 11.4581C11.048 11.202 11.4369 10.9638 11.7266 10.8054C12.0384 10.6351 12.3514 10.4386 12.488 10.3338C13.2273 9.76811 13.0872 9.17621 12.5663 8.97256Z" fill="#424242"/>
</svg>
