<svg width="17" height="18" viewBox="0 0 17 18" fill="none" xmlns="http://www.w3.org/2000/svg">
<path d="M15.7535 10.6567C15.0725 10.3965 14.1622 10.3065 13.6783 10.72C13.1662 11.1559 12.9495 11.3472 12.0209 12.1558C10.7927 12.5256 11.1923 9.58795 11.2654 8.78358C11.2696 8.73717 11.8549 4.02201 11.9858 3.22748C12.1391 2.29233 11.8226 1.67217 11.1782 1.5667C10.486 1.4542 10.0414 2.37951 9.96403 2.85905C9.84444 3.59873 9.42659 5.96967 9.22118 7.68811C9.22118 7.68811 9.18882 7.85264 9.14661 7.88358C8.84553 8.10436 8.65279 7.71764 8.65279 7.71764C8.56697 6.41686 8.57259 2.61998 8.56697 1.89858C8.5529 0.652639 8.17303 0.06342 7.52163 0.0620137C6.66342 0.0606075 6.40595 0.797483 6.41861 2.01389C6.42706 2.74092 6.54102 5.46623 6.52273 7.54045C6.20899 8.10295 5.82912 7.61779 5.82912 7.61779C5.5801 5.64904 5.35781 3.06717 5.25651 2.46108C5.0919 1.4767 4.75846 1.02529 4.10706 1.07873C3.43034 1.13358 3.19257 1.68764 3.30935 2.83654C3.39235 3.65076 3.71454 6.82748 3.8707 8.13811C3.70187 8.91858 3.16162 8.47983 3.16162 8.47983C2.79864 6.58279 2.5876 5.56326 2.4652 5.08654C2.20773 4.07826 1.89399 3.76608 1.2637 3.93764C0.565872 4.12889 0.543361 4.75748 0.684052 5.67155C0.778315 6.28608 1.4888 10.4106 1.55634 12.0559C1.66326 14.5815 2.79301 16.7134 4.06908 17.2492C5.86289 18.003 8.31654 18.0001 10.3566 16.8751C10.8504 16.6023 11.551 15.6503 11.9632 15.2636C12.0266 15.2017 13.2773 13.7097 13.4588 13.5915C13.9245 13.2892 14.393 13.008 14.7419 12.8209C15.1175 12.6198 15.4946 12.3878 15.6592 12.264C16.5498 11.5961 16.3809 10.8972 15.7535 10.6567Z" fill="#FFD600"/>
</svg>
